<svg width="35" height="35" viewBox="0 0 35 35" fill="none" xmlns="http://www.w3.org/2000/svg">
<path d="M29.1668 24.792V16.7012C29.1668 15.922 29.1662 15.5321 29.0714 15.1695C28.9874 14.8482 28.8496 14.5441 28.6631 14.2693C28.4526 13.9592 28.1599 13.7021 27.5735 13.189L20.5735 7.06397C19.4847 6.11127 18.9403 5.63515 18.3276 5.45397C17.7877 5.29432 17.2123 5.29432 16.6724 5.45397C16.0602 5.63502 15.5166 6.11068 14.4294 7.06195L7.42712 13.189C6.84068 13.7021 6.54814 13.9592 6.33765 14.2693C6.15111 14.5441 6.01221 14.8482 5.92825 15.1695C5.8335 15.5321 5.8335 15.922 5.8335 16.7012V24.792C5.8335 26.151 5.8335 26.8302 6.05551 27.3662C6.35154 28.0809 6.91896 28.6494 7.63363 28.9454C8.16963 29.1674 8.84912 29.1674 10.2081 29.1674C11.5671 29.1674 12.2474 29.1674 12.7834 28.9454C13.498 28.6494 14.0653 28.081 14.3613 27.3663C14.5833 26.8303 14.5835 26.1508 14.5835 24.7918V23.3335C14.5835 21.7227 15.8893 20.4168 17.5002 20.4168C19.111 20.4168 20.4168 21.7227 20.4168 23.3335V24.7918C20.4168 26.1508 20.4168 26.8303 20.6388 27.3663C20.9349 28.081 21.5023 28.6494 22.217 28.9454C22.753 29.1674 23.4325 29.1674 24.7915 29.1674C26.1504 29.1674 26.8307 29.1674 27.3667 28.9454C28.0814 28.6494 28.6486 28.0809 28.9447 27.3662C29.1667 26.8302 29.1668 26.151 29.1668 24.792Z" stroke="black" stroke-width="2" stroke-linecap="round" stroke-linejoin="round"/>
</svg>
