<svg width="35" height="35" viewBox="0 0 35 35" fill="none" xmlns="http://www.w3.org/2000/svg">
<g clip-path="url(#clip0_145_19)">
<path d="M30.625 29.1665C30.625 26.6267 28.1901 24.4659 24.7917 23.6651M21.875 29.1666C21.875 25.945 17.9575 23.3333 13.125 23.3333C8.29251 23.3333 4.375 25.945 4.375 29.1666M21.875 18.9583C25.0967 18.9583 27.7083 16.3466 27.7083 13.125C27.7083 9.9033 25.0967 7.29163 21.875 7.29163M13.125 18.9583C9.90334 18.9583 7.29167 16.3466 7.29167 13.125C7.29167 9.9033 9.90334 7.29163 13.125 7.29163C16.3467 7.29163 18.9583 9.9033 18.9583 13.125C18.9583 16.3466 16.3467 18.9583 13.125 18.9583Z" stroke="black" stroke-width="2" stroke-linecap="round" stroke-linejoin="round"/>
</g>
<defs>
<clipPath id="clip0_145_19">
<rect width="35" height="35" fill="white"/>
</clipPath>
</defs>
</svg>
